<svg width="44" height="45" viewBox="0 0 44 45" fill="none" xmlns="http://www.w3.org/2000/svg">
<rect x="1" y="1.62451" width="42" height="42" rx="3" fill="white"/>
<path d="M30.023 26.113C29.393 26.098 28.6 26.061 28.099 25.973C27.557 25.877 26.905 25.691 26.446 25.548C26.086 25.436 25.694 25.535 25.427 25.801L23.21 28.005C21.678 27.198 20.451 26.258 19.412 25.213C18.367 24.174 17.427 22.947 16.62 21.415L18.824 19.197C19.09 18.93 19.189 18.538 19.077 18.178C18.935 17.72 18.748 17.068 18.653 16.526C18.564 16.025 18.528 15.232 18.512 14.602C18.499 14.057 18.055 13.625 17.51 13.625H14C13.562 13.625 13 13.953 13 14.625C13 19.164 14.84 23.499 17.966 26.659C21.126 29.785 25.461 31.625 30 31.625C30.672 31.625 31 31.063 31 30.625V27.115C31 26.57 30.568 26.126 30.023 26.113Z" fill="#310A90"/>
<rect x="1" y="1.62451" width="42" height="42" rx="3" stroke="#310A90" stroke-width="2"/>
</svg>
