<svg width="44" height="45" viewBox="0 0 44 45" fill="none" xmlns="http://www.w3.org/2000/svg">
<rect x="1" y="1.62451" width="42" height="42" rx="3" fill="white"/>
<path d="M18 13.625C15.239 13.625 13 15.864 13 18.625V26.625C13 29.386 15.239 31.625 18 31.625H26C28.761 31.625 31 29.386 31 26.625V18.625C31 15.864 28.761 13.625 26 13.625H18ZM28 15.625C28.552 15.625 29 16.073 29 16.625C29 17.177 28.552 17.625 28 17.625C27.448 17.625 27 17.177 27 16.625C27 16.073 27.448 15.625 28 15.625ZM22 17.625C24.761 17.625 27 19.864 27 22.625C27 25.386 24.761 27.625 22 27.625C19.239 27.625 17 25.386 17 22.625C17 19.864 19.239 17.625 22 17.625ZM22 19.625C21.2044 19.625 20.4413 19.9411 19.8787 20.5037C19.3161 21.0663 19 21.8294 19 22.625C19 23.4206 19.3161 24.1837 19.8787 24.7463C20.4413 25.3089 21.2044 25.625 22 25.625C22.7956 25.625 23.5587 25.3089 24.1213 24.7463C24.6839 24.1837 25 23.4206 25 22.625C25 21.8294 24.6839 21.0663 24.1213 20.5037C23.5587 19.9411 22.7956 19.625 22 19.625Z" fill="#310A90"/>
<rect x="1" y="1.62451" width="42" height="42" rx="3" stroke="#310A90" stroke-width="2"/>
</svg>
