<svg width="44" height="45" viewBox="0 0 44 45" fill="none" xmlns="http://www.w3.org/2000/svg">
<rect x="1" y="1.62451" width="42" height="42" rx="3" fill="white"/>
<path d="M32 14.623C31.22 15.086 29.655 15.717 28.735 15.899C28.708 15.906 28.686 15.915 28.66 15.922C27.847 15.12 26.733 14.623 25.5 14.623C23.015 14.623 21 16.638 21 19.123C21 19.254 20.989 19.495 21 19.623C17.647 19.623 15.095 17.867 13.265 15.623C13.066 16.123 12.979 16.913 12.979 17.655C12.979 19.056 14.074 20.432 15.779 21.285C15.465 21.366 15.119 21.424 14.759 21.424C14.178 21.424 13.563 21.271 13 20.807C13 20.824 13 20.84 13 20.858C13 22.816 15.078 24.149 16.926 24.52C16.551 24.741 15.795 24.763 15.426 24.763C15.166 24.763 14.246 24.644 14 24.598C14.514 26.203 16.368 27.105 18.135 27.137C16.753 28.221 15.794 28.623 12.964 28.623H12C13.788 29.769 16.065 30.624 18.347 30.624C25.777 30.624 30 24.961 30 19.623C30 19.537 29.998 19.357 29.995 19.176C29.995 19.158 30 19.141 30 19.123C30 19.096 29.992 19.07 29.992 19.043C29.989 18.907 29.986 18.78 29.983 18.714C30.773 18.144 31.458 17.433 32 16.623C31.275 16.945 30.497 17.161 29.68 17.259C30.514 16.759 31.699 15.567 32 14.623Z" fill="#310A90"/>
<rect x="1" y="1.62451" width="42" height="42" rx="3" stroke="#310A90" stroke-width="2"/>
</svg>
